<?xml version="1.0" encoding="utf-8"?><svg xmlns="http://www.w3.org/2000/svg" xmlns:xlink="http://www.w3.org/1999/xlink"><symbol fill="none" viewBox="0 0 82 16" id="arrow" xmlns="http://www.w3.org/2000/svg"><path d="M81.707 8.707a1 1 0 000-1.414L75.343.929a1 1 0 10-1.414 1.414L79.586 8l-5.657 5.657a1 1 0 001.414 1.414l6.364-6.364zM0 9h81V7H0v2z" fill="#1D1D1B"/></symbol><symbol fill="none" viewBox="0 0 137 57" id="logo" xmlns="http://www.w3.org/2000/svg"><path d="M10.214 9.064a5.443 5.443 0 01-2.137 1.603 4.128 4.128 0 00.226-2.549c-.411-1.582-2.035-2.733-3.946-2.733h-.863v5.285h4.583l-3.086 2.155H3.494v4.791H0V5.385L3.083 3.23H7.44a3.729 3.729 0 012.569 1.007 3.207 3.207 0 011.09 2.445 3.547 3.547 0 01-.885 2.382zm6.31 4.953a6.092 6.092 0 004.5 1.91 6.272 6.272 0 002.015-.328 6.381 6.381 0 01-4.836 2.284 6.093 6.093 0 01-4.515-1.911 6.337 6.337 0 01-1.87-4.607 6.459 6.459 0 011.212-3.817A6.165 6.165 0 0116.174 5.2a6.395 6.395 0 00-1.52 4.213 6.33 6.33 0 001.87 4.604zm9.639-.76a6.165 6.165 0 01-3.124 2.348 6.412 6.412 0 001.52-4.234 6.25 6.25 0 00-1.87-4.589 6.093 6.093 0 00-4.486-1.911c-.684 0-1.364.111-2.014.329a6.386 6.386 0 014.836-2.282 6.092 6.092 0 014.5 1.912 6.252 6.252 0 011.871 4.583 6.38 6.38 0 01-1.233 3.843zm6.803 1.047a6.106 6.106 0 004.562 1.935 6.783 6.783 0 004.131-1.468 7.117 7.117 0 01-2.349 2.12 7.212 7.212 0 01-3.784.972 6.666 6.666 0 01-6.732-6.706 6.406 6.406 0 011.13-3.72 6.541 6.541 0 012.98-2.405 6.266 6.266 0 00-1.809 4.542 6.545 6.545 0 001.87 4.73zm5.872-8.808a6.494 6.494 0 00-5.94-.452 6.57 6.57 0 018.242-1.13l-2.302 1.582zm7.569 8.808a6.106 6.106 0 004.562 1.935 6.783 6.783 0 004.131-1.468 7.117 7.117 0 01-2.349 2.12 7.21 7.21 0 01-3.76.966 6.669 6.669 0 01-6.753-6.703 6.407 6.407 0 011.13-3.72 6.542 6.542 0 012.98-2.405 6.265 6.265 0 00-1.809 4.542 6.543 6.543 0 001.868 4.733zm5.872-8.808a6.494 6.494 0 00-5.94-.452 6.57 6.57 0 018.242-1.13l-2.302 1.582zm14.515-1.118l2.117-1.468v14.706h-2.117V6.29l-7.316 10.176-2.117 1.468V3.23h2.117v11.32l7.316-10.173zm15.456 0l2.117-1.468v14.706H82.25V6.29l-7.317 10.176-2.117 1.468V3.23h2.117v11.32L82.25 4.379zm-3.23-2.302a6.248 6.248 0 01-4.028-.863L76.742 0c.93.566 1.978.91 3.062 1.007A5.344 5.344 0 0082.95.37a6.312 6.312 0 01-3.926 1.706h-.003zM90.553 14.9a6.495 6.495 0 004.85 2.038 6.39 6.39 0 001.973-.294A5.787 5.787 0 0099.7 15.43c-1.562 1.565-3.33 2.349-5.323 2.349a6.72 6.72 0 01-4.933-2.035 6.809 6.809 0 01-2.034-4.956 6.873 6.873 0 01.965-3.523 6.791 6.791 0 012.61-2.508 6.844 6.844 0 00-2.404 5.227 6.824 6.824 0 001.973 4.917zm7.48-10.03a6.867 6.867 0 00-3.657-1.053 6.648 6.648 0 00-3.392.904 6.85 6.85 0 018.221-.658l-1.171.808zm4.378 12.746V3.23h1.419v14.386h-1.419zm3.186-7.792l6.947 7.155-1.233.863-7.276-7.525L110.9 3.23h1.192l-6.495 6.594zm20.182 7.499l-.616.431-2.508-6.086h-6.021l.616-.432h5.241l-2.995-7.27-5.103 13.65h-.554l5.446-14.143.616-.431 5.878 14.28zm4.789-13.665a4.179 4.179 0 00-1.644 3.23 3.588 3.588 0 001.048 2.672c.719.74 1.706 1.11 2.936 1.11h.432l-5.285 7.072-.631-.42 4.697-6.224a3.773 3.773 0 01-2.754-1.09 3.604 3.604 0 01-1.027-2.548c-.012-1.5.748-2.897 2.228-3.802zm6.412-.428v14.386h-.698V3.658h-5.714l.617-.431 5.795.003zM0 35.232V20.846h3.494v14.386H0zm7.214-8.285l5.672 6.682-3.02 2.138-6.105-7.34 5.734-7.581h2.543l-4.824 6.1zm17.634-.267a5.442 5.442 0 01-2.138 1.603 4.129 4.129 0 00.226-2.549c-.41-1.582-2.034-2.733-3.946-2.733h-.863v5.285h4.583l-3.083 2.158h-1.5v4.788h-3.494V23.001l3.083-2.155h4.357a3.729 3.729 0 012.57 1.007 3.206 3.206 0 011.088 2.445 3.547 3.547 0 01-.883 2.382zm6.001 1.87v4.956h6.782l-2.466 1.726h-7.111V22.57l2.48-1.723h7.215l-2.467 1.726H30.85v4.252h5.96l-2.457 1.726H30.85zm20.984 5.49l-2.467 1.762-2.178-5.141h-5.344l2.466-1.727h2.138l-2.114-4.967-4.216 11.265h-1.809l5.159-13.3 2.384-1.673 3.767 8.66h.04l-.04.021 2.214 5.1zm12.804-13.194l-1.891 1.294h-3.37v13.092h-2.123V22.138h-5.071l1.89-1.292h10.565zm11.077 1.148l2.117-1.468v14.706h-2.117V23.905L68.41 34.081l-2.116 1.468V20.846h2.116V32.17l7.305-10.176zm7.646 12.375h5.487l-1.254.863h-5.651V21.685l1.253-.84h3.761a3.36 3.36 0 012.384.882 2.898 2.898 0 01.987 2.26 3.6 3.6 0 01-2.138 3.186 3.039 3.039 0 001.028-2.323 2.97 2.97 0 00-.966-2.243 3.481 3.481 0 00-2.519-.922h-2.364L83.36 34.37zm3.966-7.217a3.817 3.817 0 012.734.966 3.314 3.314 0 011.11 2.61 4.18 4.18 0 01-2.323 3.641 3.87 3.87 0 001.192-2.757 3.296 3.296 0 00-1.077-2.545c-.719-.7-1.685-1.049-2.898-1.049H83.35l1.274-.863 2.701-.003zm17.161-6.306h1.418v14.386h-1.418v-7.34h-8.611v7.34h-1.418V20.846h1.418v7.026l1.192-.843h7.419v-6.183zm16.134 14.093l-.617.431-2.507-6.086h-6.022l.617-.432h5.24l-3-7.27-5.097 13.65h-.555l5.446-14.143.617-.431 5.878 14.28zm4.788-13.665a4.179 4.179 0 00-1.644 3.23 3.588 3.588 0 001.048 2.672c.72.74 1.706 1.11 2.936 1.11h.432l-5.285 7.072-.631-.42 4.697-6.21a3.774 3.774 0 01-2.754-1.088 3.609 3.609 0 01-1.027-2.549c-.012-1.515.749-2.912 2.228-3.817zm6.418-.428v14.386h-.704V21.274h-5.714l.617-.431 5.801.003zM0 52.848V38.462h3.494v14.386H0zm9.454-14.386h3.494v14.386H9.454v-6.6h-5.93l3.082-2.158h2.848v-5.628zm10.276 7.992v4.236h6.694l-3.097 2.158h-7.09V40.617l3.082-2.155h7.296l-3.083 2.158h-3.817v3.679h5.872l-3.082 2.158-2.775-.003zm22.279 4.668v3.987L39.316 57v-4.152h-9.598v2.261L27.026 57v-5.872h10.112V40.185h-4.48c.164 4.992-1.316 8.808-4.111 10.937.76-1.195 1.295-2.777 1.562-4.73.266-2.062.246-4.15-.062-6.207l2.487-1.726h7.396v12.663h2.079zm4.624-5.244v5.676h6.885l-1.87 1.294h-7.132V39.754l1.873-1.292h7.132l-1.87 1.295h-5.018v4.83h6.063l-1.87 1.294-4.193-.003zm8.015 5.429c1.5-.411 2.57-1.113 3.165-2.1a8.289 8.289 0 01-.945 2.141 4.698 4.698 0 01-1.468 1.603l-.752-1.644zm12.373-12.845v14.386h-1.398V39.322H59.56a21.26 21.26 0 01-.226 5.508c-.308 1.762-.801 3.23-1.52 4.378.924-2.713 1.006-6.002.293-9.886l1.254-.863 7.66.003zm6.227.428a4.172 4.172 0 00-1.644 3.23 3.576 3.576 0 001.048 2.672c.72.74 1.706 1.11 2.936 1.11h.432l-5.285 7.073-.632-.42 4.698-6.21a3.774 3.774 0 01-2.754-1.09 3.605 3.605 0 01-1.027-2.548c-.012-1.515.748-2.912 2.228-3.816zm6.412-.428v14.386h-.698V38.891h-5.714l.617-.432 5.795.003z" fill="#1D1D1B"/></symbol><symbol fill="none" viewBox="0 0 91 78" id="ticket-bg" xmlns="http://www.w3.org/2000/svg"><path d="M91 78v-5.999l-85.163-22V28L91 5.998V0l-5.838 1.508L0 23.508v30.986l85.162 21.998L91 78z" fill="#EFC622"/></symbol></svg>